<svg xmlns="http://www.w3.org/2000/svg" xmlns:xlink="http://www.w3.org/1999/xlink" contentStyleType="text/css" data-diagram-type="DESCRIPTION" height="503px" preserveAspectRatio="none" style="width:850px;height:503px;background:#EEEBDC;" version="1.1" viewBox="0 0 850 503" width="850px" zoomAndPan="magnify"><title>Container diagram for Monitoring System</title><defs/><g><rect fill="#EEEBDC" height="503" style="stroke:none;stroke-width:1;" width="850" x="0" y="0"/><g class="title" data-source-line="7"><text fill="#000000" font-family="Comic Sans MS" font-size="14" font-weight="bold" lengthAdjust="spacing" textLength="329.1367" x="253.7932" y="22.9951">Container diagram for Monitoring System</text></g><!--cluster bound--><g class="cluster" data-entity="bound" data-source-line="1660" data-uid="ent0004" id="cluster_bound"><polygon fill="none" points="7,44.2969,7,44.5071,16.9649,43.8826,26.9298,44.4902,36.8947,44.6966,46.8596,43.5835,56.8246,44.2192,66.7895,43.8704,76.7544,43.9134,86.7193,44.2287,96.6842,43.6055,106.6491,44.8505,116.614,43.6666,126.5789,44.0991,136.5439,44.7288,146.5088,44.2111,156.4737,44.3651,166.4386,44.2649,176.4035,44.4754,186.3684,44.536,196.3333,44.8826,206.2982,44.9679,216.2632,44.9761,226.2281,44.5515,236.193,44.7605,246.1579,44.9991,256.1228,43.5757,266.0877,44.9754,276.0526,44.0004,286.0175,44.8307,295.9825,43.8019,305.9474,44.2284,315.9123,45.0385,325.8772,44.2481,335.8421,44.4022,345.807,44.6355,355.7719,44.7131,365.7368,44.293,375.7018,44.5841,385.6667,43.7245,395.6316,44.5813,405.5965,44.8451,415.5614,44.7414,425.5263,44.9099,435.4912,43.8138,445.4561,43.6447,455.4211,43.6755,465.386,44.238,475.3509,44.1003,485.3158,44.9783,495.2807,44.1222,505.2456,43.9538,515.2105,44.5251,525.1754,43.63,535.1404,43.7777,545.1053,44.9458,555.0702,44.7325,565.0351,45.0314,575,44.2969,574.6782,44.2969,575.3192,54.3983,575.5904,64.4996,574.5276,74.601,574.9041,84.7024,575.126,94.8038,575.6518,104.9052,574.9958,115.0065,575.4626,125.1079,574.4462,135.2093,574.3227,145.3107,575.5036,155.412,574.2831,165.5134,575.509,175.6148,575.2066,185.7162,574.7321,195.8176,574.6462,205.9189,575.4588,216.0203,574.7007,226.1217,575.5919,236.2231,574.4473,246.3245,575.6174,256.4258,575.4843,266.5272,575.245,276.6286,575.0472,286.73,575.7266,296.8314,575.6136,306.9327,575.1693,317.0341,575.2682,327.1355,575,337.2369,575,337.1066,565.0351,337.9533,555.0702,337.3917,545.1053,337.4094,535.1404,336.6285,525.1754,336.8317,515.2105,337.7676,505.2456,337.6666,495.2807,337.1939,485.3158,336.9147,475.3509,337.0179,465.386,336.5507,455.4211,337.6516,445.4561,337.9764,435.4912,337.7633,425.5263,337.9318,415.5614,337.1001,405.5965,337.3241,395.6316,336.8493,385.6667,337.5209,375.7018,337.4836,365.7368,337.7893,355.7719,337.0072,345.807,337.1025,335.8421,337.6803,325.8772,337.8042,315.9123,336.7243,305.9474,337.043,295.9825,337.3861,286.0175,336.626,276.0526,337.5903,266.0877,337.4949,256.1228,337.1361,246.1579,337.3791,236.193,337.9656,226.2281,336.924,216.2632,337.5519,206.2982,337.5225,196.3333,337.3526,186.3684,337.3778,176.4035,337.3504,166.4386,336.6127,156.4737,336.8361,146.5088,336.7753,136.5439,337.3007,126.5789,337.325,116.614,337.3986,106.6491,336.9459,96.6842,337.1694,86.7193,337.1167,76.7544,337.8137,66.7895,337.6634,56.8246,336.7513,46.8596,337.164,36.8947,336.6596,26.9298,337.5253,16.9649,337.8454,7,337.2369,7.5446,337.2369,6.5644,327.1355,7.464,317.0341,6.2572,306.9327,7.2002,296.8314,6.7007,286.73,7.0967,276.6286,7.2403,266.5272,7.4721,256.4258,6.2801,246.3245,7.4755,236.2231,7.1782,226.1217,7.3553,216.0203,7.7478,205.9189,7.0055,195.8176,7.1753,185.7162,7.2134,175.6148,7.1972,165.5134,6.9992,155.412,7.7107,145.3107,6.3903,135.2093,7.5653,125.1079,6.376,115.0065,6.4597,104.9052,7.04,94.8038,7.0283,84.7024,6.5072,74.601,7.4137,64.4996,7.1089,54.3983,7,44.2969" style="stroke:#444444;stroke-width:1;stroke-dasharray:7,7;"/><text fill="#444444" font-family="Comic Sans MS" font-size="16" font-weight="bold" lengthAdjust="spacing" textLength="170.8672" x="205.5664" y="81.1484">Monitoring System</text><text fill="#444444" font-family="Comic Sans MS" font-size="12" font-weight="bold" lengthAdjust="spacing" textLength="59.4551" x="261.2725" y="96.0605">[system]</text></g><!--entity database--><g class="entity" data-entity="database" data-source-line="80" data-uid="ent0005" id="entity_database"><path d="M22.9,125.2969 L22.9,125.2969 L22.9303,125.3853 L26.2184,123.9664 L29.6838,123.0657 L33.0915,121.9962 L36.3093,120.3719 L39.79,119.5156 L39.7864,119.4813 L43.233,118.9716 L46.6974,118.6351 L50.1742,118.4191 L53.6083,117.7881 L57.1022,117.7383 L57.1169,117.9839 L61.0545,117.2204 L65.0352,117.174 L69.0211,117.2151 L72.9764,116.7471 L76.9479,116.5469 L76.949,116.5772 L80.9165,116.3882 L84.889,116.3371 L88.8591,116.2195 L92.8339,116.2289 L96.7935,115.8242 L96.7999,116.1224 L100.2625,116.0518 L103.7209,115.7889 L107.1853,115.8076 L110.65,115.8394 L114.1057,115.4531 L114.1028,115.1326 L117.4865,115.7234 L120.8605,115.2589 L124.2419,115.5966 L127.6157,115.1081 L130.9957,115.2969 L130.9957,115.2969 L130.9954,115.2664 L134.3767,115.6577 L137.7515,115.3377 L141.1301,115.4374 L144.5091,115.5724 L147.8857,115.4531 L147.8896,115.6381 L151.3481,115.5256 L154.8133,115.7292 L158.2675,115.4214 L161.7381,115.8764 L165.1979,115.8242 L165.2067,116.0677 L169.1742,116.1662 L173.1461,116.3856 L177.0975,116.0433 L181.0639,116.1127 L185.0436,116.5469 L185.027,116.2712 L189.0111,116.759 L192.9766,116.9362 L196.9691,117.564 L200.9155,117.4225 L204.8893,117.7383 L204.8737,117.5866 L208.3621,118.1947 L211.7839,118.1544 L215.253,118.5752 L218.7685,119.4471 L222.2015,119.5156 L222.2642,119.6988 L225.6852,120.9807 L228.9111,121.6928 L232.3814,123.1186 L235.7984,124.3889 L239.0914,125.2969 L237.8317,125.2969 L238.8358,135.0831 L239.4274,144.8692 L240.8294,154.6554 L239.0802,164.4416 L240.3249,174.2278 L237.6146,184.014 L237.2854,193.8002 L240.4344,203.5863 L237.1796,213.3725 L240.4486,223.1587 L239.6424,232.9449 L238.377,242.7311 L238.148,252.5173 L240.3148,262.3035 L238.2932,272.0896 L240.6697,281.8758 L237.6174,291.662 L240.7379,301.4482 L239.0914,311.2344 L239.0914,311.2344 L239.1611,311.438 L235.7487,312.4936 L232.3422,313.5667 L229.062,315.0087 L225.6678,316.1174 L222.2015,317.0156 L222.2091,317.0905 L218.7512,317.4897 L215.2707,317.669 L211.8467,318.3988 L208.3587,318.506 L204.8893,318.793 L204.8938,318.8695 L200.9039,318.7614 L196.9402,319.0898 L192.996,319.7433 L189.0241,319.9368 L185.0436,319.9844 L185.0429,319.9653 L181.0692,319.9858 L177.1017,320.1762 L173.125,320.1132 L169.1737,320.7467 L165.1979,320.707 L165.2049,321.0357 L161.7404,321.0151 L158.2796,321.1643 L154.8092,320.8689 L151.3489,321.0427 L147.8857,321.0781 L147.8841,320.9059 L144.5088,321.2356 L141.1307,321.2503 L137.754,321.4174 L134.3727,321.1011 L130.9957,321.2344 L130.9957,321.2344 L130.9952,321.1746 L127.6195,321.4002 L124.2421,321.424 L120.8596,320.9128 L117.4829,321.0232 L114.1057,321.0781 L114.1072,321.1444 L110.6375,320.7325 L107.1842,321.0867 L103.7209,320.9701 L100.255,320.7365 L96.7935,320.707 L96.7958,320.7702 L92.8362,320.8861 L88.8502,320.279 L84.8912,320.4133 L80.9216,320.2558 L76.9479,319.9844 L76.9509,320.0357 L72.9825,319.8086 L69.0126,319.5582 L65.0238,318.9926 L61.0606,318.8534 L57.1022,318.793 L57.0812,318.5889 L53.6426,318.4657 L50.1813,318.121 L46.7222,317.7981 L43.2392,317.2424 L39.79,317.0156 L39.7802,316.9872 L36.3947,315.8088 L33.117,314.9457 L29.7174,313.7262 L26.2081,312.1865 L22.9,311.2344 L22.7055,311.2344 L21.3607,301.4482 L23.669,291.662 L24.5226,281.8758 L24.3522,272.0896 L21.7385,262.3035 L24.1372,252.5173 L20.9192,242.7311 L23.4337,232.9449 L22.1018,223.1587 L23.1579,213.3725 L23.5409,203.5863 L24.1589,193.8002 L20.9802,184.014 L24.1679,174.2278 L23.3751,164.4416 L23.8475,154.6554 L24.8941,144.8692 L22.9146,135.0831 L22.9,125.2969" fill="#438DD5" style="stroke:#3C7FC0;stroke-width:0.5;"/><path d="M22.9,125.2969 L22.9,125.2969 L22.9303,125.3853 L26.2184,126.2789 L29.6838,127.6907 L33.0915,128.9337 L36.3093,129.6219 L39.79,131.0781 L39.7864,131.0438 L43.233,131.245 L46.6974,131.6195 L50.1742,132.1144 L53.6083,132.1943 L57.1022,132.8555 L57.1169,133.1011 L61.0545,132.8141 L65.0352,133.2443 L69.0211,133.7619 L72.9764,133.7705 L76.9479,134.0469 L76.949,134.0772 L80.9165,134.1772 L84.889,134.4152 L88.8591,134.5867 L92.8339,134.8851 L96.7935,134.7695 L96.7999,135.0677 L100.2625,135.1456 L103.7209,135.0311 L107.1853,135.1982 L110.65,135.3784 L114.1057,135.1406 L114.1028,134.8201 L117.4865,135.4734 L120.8605,135.0714 L124.2419,135.4716 L127.6157,135.0456 L130.9957,135.2969 L130.9957,135.2969 L130.9954,135.2664 L134.3767,135.5952 L137.7515,135.2127 L141.1301,135.2499 L144.5091,135.3224 L147.8857,135.1406 L147.8896,135.3256 L151.3481,135.0647 L154.8133,135.1198 L158.2675,134.6636 L161.7381,134.9701 L165.1979,134.7695 L165.2067,135.013 L169.1742,134.8224 L173.1461,134.7527 L177.0975,134.1214 L181.0639,133.9017 L185.0436,134.0469 L185.027,133.7712 L189.0111,133.7825 L192.9766,133.4831 L196.9691,133.6343 L200.9155,133.0163 L204.8893,132.8555 L204.8737,132.7038 L208.3621,132.6009 L211.7839,131.8497 L215.253,131.5595 L218.7685,131.7205 L222.2015,131.0781 L222.2642,131.2613 L225.6852,130.2307 L228.9111,128.6303 L232.3814,127.7436 L235.7984,126.7014 L239.0914,125.2969" fill="none" style="stroke:#3C7FC0;stroke-width:0.5;"/><text fill="#FFFFFF" font-family="Comic Sans MS" font-size="12" font-style="italic" lengthAdjust="spacing" textLength="71.543" x="95.2242" y="150.4355">&#171;container&#187;</text><text fill="#FFFFFF" font-family="Comic Sans MS" font-size="16" font-weight="bold" lengthAdjust="spacing" textLength="85.1484" x="88.4215" y="168.1172">Database</text><text fill="#FFFFFF" font-family="Comic Sans MS" font-size="12" font-style="italic" lengthAdjust="spacing" textLength="28.4297" x="84.7154" y="183.0293">[SQL</text><text fill="#FFFFFF" font-family="Comic Sans MS" font-size="12" font-style="italic" lengthAdjust="spacing" textLength="3.8145" x="113.1451" y="183.0293">&#160;</text><text fill="#FFFFFF" font-family="Comic Sans MS" font-size="12" font-style="italic" lengthAdjust="spacing" textLength="60.3164" x="116.9596" y="183.0293">database]</text><text fill="#FFFFFF" font-family="Comic Sans MS" font-size="14" lengthAdjust="spacing" textLength="4.4502" x="128.7706" y="198.8545">&#160;</text><text fill="#FFFFFF" font-family="Comic Sans MS" font-size="14" lengthAdjust="spacing" textLength="44.6045" x="41.1236" y="215.1514">Stores</text><text fill="#FFFFFF" font-family="Comic Sans MS" font-size="14" lengthAdjust="spacing" textLength="4.4502" x="85.7281" y="215.1514">&#160;</text><text fill="#FFFFFF" font-family="Comic Sans MS" font-size="14" lengthAdjust="spacing" textLength="31.5342" x="90.1783" y="215.1514">data</text><text fill="#FFFFFF" font-family="Comic Sans MS" font-size="14" lengthAdjust="spacing" textLength="4.4502" x="121.7125" y="215.1514">&#160;</text><text fill="#FFFFFF" font-family="Comic Sans MS" font-size="14" lengthAdjust="spacing" textLength="71.0049" x="126.1627" y="215.1514">necessary</text><text fill="#FFFFFF" font-family="Comic Sans MS" font-size="14" lengthAdjust="spacing" textLength="4.4502" x="197.1676" y="215.1514">&#160;</text><text fill="#FFFFFF" font-family="Comic Sans MS" font-size="14" lengthAdjust="spacing" textLength="19.25" x="201.6178" y="215.1514">for</text><text fill="#FFFFFF" font-family="Comic Sans MS" font-size="14" lengthAdjust="spacing" textLength="76.4258" x="56.1148" y="231.4482">monitoring</text><text fill="#FFFFFF" font-family="Comic Sans MS" font-size="14" lengthAdjust="spacing" textLength="4.4502" x="132.5406" y="231.4482">&#160;</text><text fill="#FFFFFF" font-family="Comic Sans MS" font-size="14" lengthAdjust="spacing" textLength="68.8857" x="136.9908" y="231.4482">purposes:</text><text fill="#FFFFFF" font-family="Comic Sans MS" font-size="14" lengthAdjust="spacing" textLength="140.9023" x="60.5445" y="247.7451">CPU/GPU/RAM/Disks</text><text fill="#FFFFFF" font-family="Comic Sans MS" font-size="14" lengthAdjust="spacing" textLength="196.1914" x="32.9" y="264.042">loading/speed/usage/peaks,</text><text fill="#FFFFFF" font-family="Comic Sans MS" font-size="14" lengthAdjust="spacing" textLength="50.6133" x="86.921" y="280.3389">system</text><text fill="#FFFFFF" font-family="Comic Sans MS" font-size="14" lengthAdjust="spacing" textLength="4.4502" x="137.5343" y="280.3389">&#160;</text><text fill="#FFFFFF" font-family="Comic Sans MS" font-size="14" lengthAdjust="spacing" textLength="33.0859" x="141.9845" y="280.3389">logs,</text><text fill="#FFFFFF" font-family="Comic Sans MS" font-size="14" lengthAdjust="spacing" textLength="153.3711" x="54.3102" y="296.6357">fault/errors/undefined</text><text fill="#FFFFFF" font-family="Comic Sans MS" font-size="14" lengthAdjust="spacing" textLength="79.249" x="91.3712" y="312.9326">behavior,...</text></g><!--entity backend_api--><g class="entity" data-entity="backend_api" data-source-line="76" data-uid="ent0006" id="entity_backend_api"><polygon fill="#438DD5" points="381.44,144.2469,381.44,144.4571,391.2798,143.8326,401.1197,144.4402,410.9595,144.6466,420.7994,143.5335,430.6392,144.1692,440.4791,143.8204,450.3189,143.8634,460.1588,144.1787,469.9986,143.5555,479.8384,144.8005,489.6783,143.6166,499.5181,144.0491,509.358,144.6788,519.1978,144.1611,529.0377,144.3151,538.8775,144.2149,548.7173,144.4254,558.5572,144.2469,558.7963,144.2469,559.1429,154.1167,559.2282,163.9865,559.2364,173.8563,558.8118,183.726,559.0208,193.5958,559.2594,203.4656,557.836,213.3354,559.2357,223.2052,558.2607,233.075,559.091,242.9448,558.0622,252.8146,558.4887,262.6844,559.2988,272.5542,558.5085,282.424,558.5572,292.2938,558.5572,292.3991,548.7173,292.6324,538.8775,292.71,529.0377,292.2898,519.1978,292.581,509.358,291.7213,499.5181,292.5781,489.6783,292.8419,479.8384,292.7383,469.9986,292.9068,460.1588,291.8107,450.3189,291.6416,440.4791,291.6723,430.6392,292.2349,420.7994,292.0972,410.9595,292.9752,401.1197,292.1191,391.2798,291.9507,381.44,292.2938,381.6683,292.2938,380.7732,282.424,380.9209,272.5542,382.089,262.6844,381.8757,252.8146,382.1745,242.9448,381.1182,233.075,381.7592,223.2052,382.0304,213.3354,380.9676,203.4656,381.3441,193.5958,381.566,183.726,382.0918,173.8563,381.4358,163.9865,381.9026,154.1167,381.44,144.2469" style="stroke:#3C7FC0;stroke-width:0.5;"/><text fill="#FFFFFF" font-family="Comic Sans MS" font-size="12" font-style="italic" lengthAdjust="spacing" textLength="71.543" x="434.2271" y="165.3855">&#171;container&#187;</text><text fill="#FFFFFF" font-family="Comic Sans MS" font-size="16" font-weight="bold" lengthAdjust="spacing" textLength="30.0625" x="401.1548" y="183.0672">API</text><text fill="#FFFFFF" font-family="Comic Sans MS" font-size="16" font-weight="bold" lengthAdjust="spacing" textLength="5.5703" x="431.2173" y="183.0672">&#160;</text><text fill="#FFFFFF" font-family="Comic Sans MS" font-size="16" font-weight="bold" lengthAdjust="spacing" textLength="102.0547" x="436.7877" y="183.0672">Application</text><text fill="#FFFFFF" font-family="Comic Sans MS" font-size="12" font-style="italic" lengthAdjust="spacing" textLength="132.0703" x="403.9634" y="197.9793">[Prometeus+Grafana]</text><text fill="#FFFFFF" font-family="Comic Sans MS" font-size="14" lengthAdjust="spacing" textLength="4.4502" x="467.7735" y="213.8045">&#160;</text><text fill="#FFFFFF" font-family="Comic Sans MS" font-size="14" lengthAdjust="spacing" textLength="61.3389" x="401.2632" y="230.1014">Contains</text><text fill="#FFFFFF" font-family="Comic Sans MS" font-size="14" lengthAdjust="spacing" textLength="4.4502" x="462.6021" y="230.1014">&#160;</text><text fill="#FFFFFF" font-family="Comic Sans MS" font-size="14" lengthAdjust="spacing" textLength="16.3584" x="467.0523" y="230.1014">all</text><text fill="#FFFFFF" font-family="Comic Sans MS" font-size="14" lengthAdjust="spacing" textLength="4.4502" x="483.4107" y="230.1014">&#160;</text><text fill="#FFFFFF" font-family="Comic Sans MS" font-size="14" lengthAdjust="spacing" textLength="32.9287" x="487.8609" y="230.1014">logic</text><text fill="#FFFFFF" font-family="Comic Sans MS" font-size="14" lengthAdjust="spacing" textLength="4.4502" x="520.7896" y="230.1014">&#160;</text><text fill="#FFFFFF" font-family="Comic Sans MS" font-size="14" lengthAdjust="spacing" textLength="13.4941" x="525.2398" y="230.1014">of</text><text fill="#FFFFFF" font-family="Comic Sans MS" font-size="14" lengthAdjust="spacing" textLength="81.0469" x="391.44" y="246.3982">information</text><text fill="#FFFFFF" font-family="Comic Sans MS" font-size="14" lengthAdjust="spacing" textLength="4.4502" x="472.4869" y="246.3982">&#160;</text><text fill="#FFFFFF" font-family="Comic Sans MS" font-size="14" lengthAdjust="spacing" textLength="71.6201" x="476.9371" y="246.3982">collection,</text><text fill="#FFFFFF" font-family="Comic Sans MS" font-size="14" lengthAdjust="spacing" textLength="75.7559" x="416.7261" y="262.6951">processing</text><text fill="#FFFFFF" font-family="Comic Sans MS" font-size="14" lengthAdjust="spacing" textLength="4.4502" x="492.482" y="262.6951">&#160;</text><text fill="#FFFFFF" font-family="Comic Sans MS" font-size="14" lengthAdjust="spacing" textLength="26.3389" x="496.9322" y="262.6951">and</text><text fill="#FFFFFF" font-family="Comic Sans MS" font-size="14" lengthAdjust="spacing" textLength="103.291" x="418.3531" y="278.992">representation</text></g><!--entity tsn--><g class="entity" data-entity="tsn" data-source-line="398" data-uid="ent0002" id="entity_tsn"><polygon fill="#1168BD" points="675.27,166.3569,675.27,166.5671,685.2378,165.9426,695.2057,166.5502,705.1735,166.7566,715.1413,165.6435,725.1092,166.2792,735.077,165.9304,745.0448,165.9734,755.0126,166.2887,764.9805,165.6655,774.9483,166.9105,784.9161,165.7266,794.884,166.1591,804.8518,166.7888,814.8196,166.2711,824.7875,166.4251,834.7553,166.3249,844.7231,166.3569,844.9017,166.3569,844.9623,176.7381,845.3088,187.1194,845.3942,197.5006,845.4024,207.8819,844.9778,218.2631,845.1867,228.6444,845.4254,239.0256,844.0019,249.4069,845.4016,259.7881,844.7231,270.1694,844.7231,269.8729,834.7553,270.7032,824.7875,269.6744,814.8196,270.1009,804.8518,270.911,794.884,270.1206,784.9161,270.2747,774.9483,270.508,764.9805,270.5856,755.0126,270.1655,745.0448,270.4566,735.077,269.597,725.1092,270.4538,715.1413,270.7176,705.1735,270.6139,695.2057,270.7824,685.2378,269.6863,675.27,270.1694,674.6178,270.1694,674.6486,259.7881,675.2111,249.4069,675.0735,239.0256,675.9514,228.6444,675.0953,218.2631,674.9269,207.8819,675.4983,197.5006,674.6032,187.1194,674.7509,176.7381,675.27,166.3569" style="stroke:#3C7FC0;stroke-width:0.5;"/><text fill="#FFFFFF" font-family="Comic Sans MS" font-size="12" font-style="italic" lengthAdjust="spacing" textLength="58.0664" x="730.9634" y="187.4955">&#171;system&#187;</text><text fill="#FFFFFF" font-family="Comic Sans MS" font-size="16" font-weight="bold" lengthAdjust="spacing" textLength="90.1172" x="685.27" y="205.1772">Travellers</text><text fill="#FFFFFF" font-family="Comic Sans MS" font-size="16" font-weight="bold" lengthAdjust="spacing" textLength="5.5703" x="775.3872" y="205.1772">&#160;</text><text fill="#FFFFFF" font-family="Comic Sans MS" font-size="16" font-weight="bold" lengthAdjust="spacing" textLength="53.7656" x="780.9575" y="205.1772">Social</text><text fill="#FFFFFF" font-family="Comic Sans MS" font-size="16" font-weight="bold" lengthAdjust="spacing" textLength="76.1953" x="721.8989" y="223.8022">Network</text><text fill="#FFFFFF" font-family="Comic Sans MS" font-size="14" lengthAdjust="spacing" textLength="4.4502" x="757.7715" y="240.5707">&#160;</text><text fill="#FFFFFF" font-family="Comic Sans MS" font-size="14" lengthAdjust="spacing" textLength="32.71" x="715.3135" y="256.8676">Core</text><text fill="#FFFFFF" font-family="Comic Sans MS" font-size="14" lengthAdjust="spacing" textLength="4.4502" x="748.0234" y="256.8676">&#160;</text><text fill="#FFFFFF" font-family="Comic Sans MS" font-size="14" lengthAdjust="spacing" textLength="52.2061" x="752.4736" y="256.8676">System</text></g><!--entity dashboard--><g class="entity" data-entity="dashboard" data-source-line="76" data-uid="ent0003" id="entity_dashboard"><polygon fill="#438DD5" points="363.06,398.2369,363.06,398.4471,373.2451,397.8226,383.4302,398.4302,393.6152,398.6366,403.8003,397.5235,413.9854,398.1592,424.1705,397.8104,434.3556,397.8534,444.5407,398.1687,454.7257,397.5455,464.9108,398.7905,475.0959,397.6066,485.281,398.0391,495.4661,398.6688,505.6511,398.1511,515.8362,398.3051,526.0213,398.2049,536.2064,398.4154,546.3915,398.476,556.5766,398.8226,566.7616,398.9079,576.9467,398.2369,577.626,398.2369,577.2013,408.3033,577.4103,418.3697,577.649,428.4361,576.2255,438.5025,577.6252,448.5689,576.6502,458.6353,577.4805,468.7017,576.9467,478.7681,576.9467,478.2731,566.7616,478.6996,556.5766,479.5097,546.3915,478.7194,536.2064,478.8734,526.0213,479.1068,515.8362,479.1844,505.6511,478.7642,495.4661,479.0553,485.281,478.1957,475.0959,479.0525,464.9108,479.3163,454.7257,479.2127,444.5407,479.3811,434.3556,478.285,424.1705,478.1159,413.9854,478.1467,403.8003,478.7092,393.6152,478.5716,383.4302,479.4495,373.2451,478.5934,363.06,478.7681,362.7169,478.7681,363.2883,468.7017,362.3932,458.6353,362.5409,448.5689,363.709,438.5025,363.4957,428.4361,363.7945,418.3697,362.7382,408.3033,363.06,398.2369" style="stroke:#3C7FC0;stroke-width:0.5;"/><text fill="#FFFFFF" font-family="Comic Sans MS" font-size="12" font-style="italic" lengthAdjust="spacing" textLength="71.543" x="434.2319" y="419.3755">&#171;container&#187;</text><text fill="#FFFFFF" font-family="Comic Sans MS" font-size="16" font-weight="bold" lengthAdjust="spacing" textLength="66.8047" x="385.9409" y="437.0572">Metrics</text><text fill="#FFFFFF" font-family="Comic Sans MS" font-size="16" font-weight="bold" lengthAdjust="spacing" textLength="5.5703" x="452.7455" y="437.0572">&#160;</text><text fill="#FFFFFF" font-family="Comic Sans MS" font-size="16" font-weight="bold" lengthAdjust="spacing" textLength="95.75" x="458.3159" y="437.0572">dashboard</text><text fill="#FFFFFF" font-family="Comic Sans MS" font-size="12" font-style="italic" lengthAdjust="spacing" textLength="43.3125" x="373.06" y="451.9693">[Shows</text><text fill="#FFFFFF" font-family="Comic Sans MS" font-size="12" font-style="italic" lengthAdjust="spacing" textLength="3.8145" x="416.3725" y="451.9693">&#160;</text><text fill="#FFFFFF" font-family="Comic Sans MS" font-size="12" font-style="italic" lengthAdjust="spacing" textLength="14.0215" x="420.187" y="451.9693">all</text><text fill="#FFFFFF" font-family="Comic Sans MS" font-size="12" font-style="italic" lengthAdjust="spacing" textLength="3.8145" x="434.2084" y="451.9693">&#160;</text><text fill="#FFFFFF" font-family="Comic Sans MS" font-size="12" font-style="italic" lengthAdjust="spacing" textLength="54.293" x="438.0229" y="451.9693">collected</text><text fill="#FFFFFF" font-family="Comic Sans MS" font-size="12" font-style="italic" lengthAdjust="spacing" textLength="3.8145" x="492.3159" y="451.9693">&#160;</text><text fill="#FFFFFF" font-family="Comic Sans MS" font-size="12" font-style="italic" lengthAdjust="spacing" textLength="44.8945" x="496.1303" y="451.9693">metrics</text><text fill="#FFFFFF" font-family="Comic Sans MS" font-size="12" font-style="italic" lengthAdjust="spacing" textLength="3.8145" x="541.0248" y="451.9693">&#160;</text><text fill="#FFFFFF" font-family="Comic Sans MS" font-size="12" font-style="italic" lengthAdjust="spacing" textLength="10.9395" x="544.8393" y="451.9693">in</text><text fill="#FFFFFF" font-family="Comic Sans MS" font-size="12" font-style="italic" lengthAdjust="spacing" textLength="3.8145" x="555.7788" y="451.9693">&#160;</text><text fill="#FFFFFF" font-family="Comic Sans MS" font-size="12" font-style="italic" lengthAdjust="spacing" textLength="7.3535" x="559.5932" y="451.9693">a</text><text fill="#FFFFFF" font-family="Comic Sans MS" font-size="12" font-style="italic" lengthAdjust="spacing" textLength="45.3457" x="428.9877" y="465.938">handful</text><text fill="#FFFFFF" font-family="Comic Sans MS" font-size="12" font-style="italic" lengthAdjust="spacing" textLength="3.8145" x="474.3334" y="465.938">&#160;</text><text fill="#FFFFFF" font-family="Comic Sans MS" font-size="12" font-style="italic" lengthAdjust="spacing" textLength="32.8711" x="478.1479" y="465.938">form]</text></g><!--reverse link database to backend_api--><g class="link" data-entity-1="database" data-entity-2="backend_api" data-source-line="1793" data-uid="lnk7" id="link_database_backend_api"><path d="M247.19,218.2669 L247.19,218.5471 L257.4808,217.7144 L267.7715,218.5246 L278.0623,218.7998 L288.3531,217.3157 L298.6438,218.1633 L308.9346,217.6982 L319.2254,217.7555 L329.5162,218.176 L339.8069,217.345 L350.0977,219.0051 L360.3885,217.4265 L370.6792,218.0032 L380.97,218.2669" fill="none" style="stroke:#666666;stroke-width:1;"/><polygon fill="#666666" points="239.19,218.2669,239.2146,218.3325,240.7415,218.7376,242.4126,219.5272,244.0368,220.1916,245.5065,220.4442,247.19,221.2669,247.1641,221.2669,247.0478,220.0669,247.0622,218.8669,247.1673,217.6669,246.9595,216.4669,247.19,215.2669,247.2548,215.4397,245.5162,215.6702,243.9669,216.4052,242.4406,217.2017,240.78,217.6401,239.19,218.2669" style="stroke:#666666;stroke-width:1;"/><text fill="#666666" font-family="Comic Sans MS" font-size="12" font-weight="bold" lengthAdjust="spacing" textLength="41.209" x="257.27" y="184.4055">Reads</text><text fill="#666666" font-family="Comic Sans MS" font-size="12" font-weight="bold" lengthAdjust="spacing" textLength="4.1777" x="298.479" y="184.4055">&#160;</text><text fill="#666666" font-family="Comic Sans MS" font-size="12" font-weight="bold" lengthAdjust="spacing" textLength="31.8867" x="302.6567" y="184.4055">from</text><text fill="#666666" font-family="Comic Sans MS" font-size="12" font-weight="bold" lengthAdjust="spacing" textLength="4.1777" x="334.5434" y="184.4055">&#160;</text><text fill="#666666" font-family="Comic Sans MS" font-size="12" font-weight="bold" lengthAdjust="spacing" textLength="25.2305" x="338.7212" y="184.4055">and</text><text fill="#666666" font-family="Comic Sans MS" font-size="12" font-weight="bold" lengthAdjust="spacing" textLength="42.1348" x="280.4643" y="198.3743">writes</text><text fill="#666666" font-family="Comic Sans MS" font-size="12" font-weight="bold" lengthAdjust="spacing" textLength="4.1777" x="322.5991" y="198.3743">&#160;</text><text fill="#666666" font-family="Comic Sans MS" font-size="12" font-weight="bold" lengthAdjust="spacing" textLength="13.9805" x="326.7768" y="198.3743">to</text><text fill="#666666" font-family="Comic Sans MS" font-size="12" font-style="italic" lengthAdjust="spacing" textLength="44.2734" x="288.4741" y="212.343">[async]</text></g><!--link tsn to backend_api--><g class="link" data-entity-1="tsn" data-entity-2="backend_api" data-source-line="1785" data-uid="lnk8" id="link_tsn_backend_api"><path d="M675.16,218.2669 L675.16,218.5471 L665.3255,217.7144 L655.4909,218.5246 L645.6564,218.7998 L635.8218,217.3157 L625.9873,218.1633 L616.1527,217.6982 L606.3182,217.7555 L596.4836,218.176 L586.6491,217.345 L576.8145,219.0051 L566.98,218.2669" fill="none" style="stroke:#666666;stroke-width:1;"/><polygon fill="#666666" points="558.98,218.2669,559.0046,218.3325,560.5315,218.7376,562.2026,219.5272,563.8268,220.1916,565.2965,220.4442,566.98,221.2669,566.9541,221.2669,566.8378,220.0669,566.8522,218.8669,566.9573,217.6669,566.7495,216.4669,566.98,215.2669,567.0448,215.4397,565.3062,215.6702,563.7569,216.4052,562.2306,217.2017,560.57,217.6401,558.98,218.2669" style="stroke:#666666;stroke-width:1;"/><text fill="#666666" font-family="Comic Sans MS" font-size="12" font-weight="bold" lengthAdjust="spacing" textLength="46.2656" x="576.92" y="198.4055">Collect</text><text fill="#666666" font-family="Comic Sans MS" font-size="12" font-weight="bold" lengthAdjust="spacing" textLength="4.1777" x="623.1856" y="198.4055">&#160;</text><text fill="#666666" font-family="Comic Sans MS" font-size="12" font-weight="bold" lengthAdjust="spacing" textLength="30.5215" x="627.3634" y="198.4055">data</text><text fill="#666666" font-family="Comic Sans MS" font-size="12" font-style="italic" lengthAdjust="spacing" textLength="33.3164" x="600.7442" y="212.3743">[RPC]</text></g><!--link backend_api to dashboard--><g class="link" data-entity-1="backend_api" data-entity-2="dashboard" data-source-line="1773" data-uid="lnk9" id="link_backend_api_dashboard"><path d="M470,292.5469 L470.2802,292.5469 L469.4476,302.2709 L470.2577,311.9949 L470.5329,321.7189 L469.0488,331.4429 L469.8964,341.1669 L469.4313,350.8909 L469.4887,360.6149 L469.9091,370.3389 L469.0782,380.0629 L470,389.7869" fill="none" style="stroke:#666666;stroke-width:1;"/><polygon fill="#666666" points="470,397.7869,470.0656,397.8115,470.4707,396.1384,471.2603,394.6095,471.9247,393.0337,472.1773,391.3034,473,389.7869,473,389.761,471.8,389.6447,470.6,389.659,469.4,389.7642,468.2,389.5564,467,389.7869,467.1728,389.8517,467.4033,391.3131,468.1383,392.9637,468.9348,394.6374,469.3732,396.1768,470,397.7869" style="stroke:#666666;stroke-width:1;"/><text fill="#666666" font-family="Comic Sans MS" font-size="12" font-weight="bold" lengthAdjust="spacing" textLength="54.4922" x="471" y="365.3755">Outputs</text></g><g class="footer" data-source-line="1500"><text fill="#FF0000" font-family="Comic Sans MS" font-size="10" lengthAdjust="spacing" textLength="45.2979" x="280.6931" y="493.0504">Warning:</text><text fill="#888888" font-family="Comic Sans MS" font-size="10" lengthAdjust="spacing" textLength="226.8604" x="329.1697" y="493.0504">Created for discussion, needs to be validated</text></g><!--SRC=[PL9DRzim3BtxLx2-BC7I-B9JRwaxTCEQDalImqu6RT6n45aIHBb1CEo_ZtBwaQ0635Co-TxZ8w-qRSoW2BeOFTyKHS33VATZDzG3KsYSZMJZl75zuGtQEFJccgCokYxARzUhTFMyV2Xwv4X1hgfIAb1R2dClkTaN6AmKzm82iIDedJ7keEqEZ2G1MWKNltLWYHm8EHZNe357mRXwK_cP87jO_7bwtbQBJRNvzNrR_fXCiopgQ2JvBHEKnbt0NjW3B9tLqOKaONCKrNsMdRwJo7O6su0lP0m5XerhD1fuf7XmOJ-3l7I1NejoONd7doZahdOOr0oM58Dk6Cwkyatd3WpIY_Ggq4qa1VrhdhQ0q8aFxM2IlX7vn57Tki4g3CT9dG81-gGzdyBV3EHvrt9NYvg8DJ99mTrhc2SLlnz0dPy5YNYy0aiDCGlLQ57_GUE7u1qJtq2vUYxkvLqlbiMTvZtBV519Ji6UI1K3uuuAJxZd6V2eJZ9sScXnCB6W45pWGXgXLeGggAd35-t2R3wVWtHzqSQancPFLbNejMXTh7x2mdkZ6upQsIH_5PnuI0D_lG_OeiLydD1OVp9Rs7K3hXMFax5ZvTi499o13owrdVfCYnZ8Yo6oYYUEQVOlozPagbkHKZsItib0mvcxbnBNX8gX5LKZs27eAEv6bsGX7sqZW0dj7MXSjqkCyYHkd4cgMw_AKzMb7UUxzJH4FqJEf_y1]--></g></svg>